<svg xmlns="http://www.w3.org/2000/svg" xml:space="preserve" width="2500px" height="366px" x="0px" y="0px" viewBox="0 0 2500 366"><path fill="#D50000" d="m2146.228 9.448-301.214 348.754h147.582L2293.205 9.731l-146.977-.283zm207.965 0L2052.98 358.202h147.582L2501.171 9.731l-146.978-.283z"/><path fill="#FFF" d="M624.747 93.29c-42.782-.131-192.886 3.649-192.886 72.289 0 48.297 70.223 62.209 128.197 68.459 41.039 4.426 75.828 4.214 75.828 4.214s32.621 1.3 72.127-.938c61.292-3.488 139.316-17.299 139.316-71.755 0-71.896-203.732-72.158-211.585-72.158-.978 0-4.899-.101-11.008-.111h.011zm-402.958 2.007-199.015.08s-9.325-.807-14.889 3.538c-5.182 4.053-5.242 13.196-5.242 13.196L1.171 220.198c0 16.744 19.002 15.424 19.002 15.424l208.571-.162s68.549 1.704 115.294-14.133c30.646-10.373 46.402-30.263 46.402-55.524 0-28.267-27.218-47.783-64.114-58.025-46.361-12.854-104.537-12.481-104.537-12.481zm887.329 0-198.975.08s-9.324-.807-14.879 3.538c-5.202 4.053-5.242 13.196-5.242 13.196l-1.502 108.086c0 16.744 19.002 15.424 19.002 15.424l208.632-.162s68.448 1.704 115.224-14.133c30.646-10.373 46.472-30.263 46.472-55.524 0-28.267-27.218-47.783-64.214-58.025-46.271-12.853-104.538-12.479-104.538-12.479h.02zm595.471.151-230.85.182s-17.137-.101-39.92 1.945c-45.666 4.093-114.215 18.024-114.215 68.005 0 23.257 12.601 39.729 34.376 50.132 47.379 21.432 129.84 19.829 129.84 19.829h206.051c18.045 0 19.859-10.665 19.859-17.863 0-7.188.504-35.696.504-52.098 0-16.391-17.742-15-17.742-15h-183.369c-8.064 0-8.064 6.563-8.064 6.563s-.403 8.448-.403 15.948c0 7.521 7.661 7.318 7.661 7.318h105.748c6.955 0 7.762 5.615 7.762 5.615v12.701c0 6.533-6.956 6.966-6.956 6.966h-121.372c-18.75 0-84.477 0-84.477-40.111 0-40.101 77.621-40.474 77.621-40.474h216.838c8.77 0 7.561-10.555 7.561-10.555v-13.206c-.001-5.746-4.639-5.897-6.453-5.897zm71.17.101c-16.229 0-21.472 2.65-21.976 17.641-.403 11.855-1.714 85.919-1.714 103.056 0 17.117 9.476 19.295 20.767 19.295h332.262c7.46 0 7.158-5.786 7.158-7.107v-16.502c0-6.28-9.174-6.24-9.174-6.24h-251.313c-9.778 0-9.477-6.068-9.477-6.068s.101-5.746.101-12.167c0-6.401 5.848-7.439 8.67-7.439h236.495c6.955 0 6.854-6.533 6.854-6.533v-16.341c0-7.066-8.568-6.794-8.568-6.794h-235.588c-7.863 0-7.964-7.974-7.964-7.974l.202-8.901c0-7.723 7.762-8.367 7.762-8.367h249.197c7.358 0 8.367-5.313 8.367-10.555v-13.206c0-6.371-8.771-5.796-8.771-5.796h-323.29zm-1139.328 27.51c20.827 0 121.523 1.814 121.523 43.015.102 44.265-93.962 41.704-121.523 41.704-27.581 0-114.478-1.693-114.478-41.704 0-44.274 93.631-43.015 114.468-43.015h.01zm-412.777 2.047s27.984 1.078 49.375 9.193c16.764 6.361 28.085 17.833 28.085 31.341 0 11.371-7.369 22.833-20.696 28.942-22.792 10.434-56.866 11.068-56.866 11.068l-128.409.081s-7.258.182-7.258-6.543c0 0 1.149-66.503 1.149-67.369 0-.877-.081-6.634 7.581-6.634l127.039-.079zm887.329 0s28.024 1.078 49.396 9.193c16.835 6.361 28.125 17.833 28.125 31.341 0 11.371-7.358 22.833-20.766 28.942-22.783 10.434-56.855 11.068-56.855 11.068l-128.379.081s-7.218.182-7.218-6.543c0 0 1.108-66.503 1.108-67.369 0-.877-.07-6.634 7.591-6.634l126.998-.079z"/></svg>