<svg xmlns="http://www.w3.org/2000/svg" xml:space="preserve" width="1000px" height="1333px" x="0px" y="0px" viewBox="0 0 1000 1333"><path fill="#FFF" d="M577.082 208.246H388.293v375.836a556.833 556.833 0 0 1-74.195 28.02 285.785 285.785 0 0 1-42.043 9.89V225.555s0-57.696-28.856-76.649v-7.418h298.434a174.722 174.722 0 0 1 35.449 66.758zm50.29 515.95c124.405-52.259 204.413-175.016 201.976-309.899 5.59-64.573-18.355-128.202-65.125-173.081l-6.598-4.945a186.453 186.453 0 0 0-9.066-30.497 312.502 312.502 0 0 0-24.734-58.515h18.137c101.941 17.937 184.953 91.992 214.348 191.21 32.801 101.594 14.367 212.782-49.465 298.359A527.476 527.476 0 0 1 802.97 738.203l-23.086 14.837a1153.882 1153.882 0 0 1 126.96 253.03 1565.762 1565.762 0 0 1 61.829 239.017c7.422 66.758 28.031 72.526 32.152 73.351v7.418H764.223v-7.418c48.949-23.976 77.629-76.046 71.723-130.222a741.707 741.707 0 0 0-50.289-247.259 1276.372 1276.372 0 0 0-70.074-154.949c-12.367 5.77-28.855 11.54-47.816 18.134a816.552 816.552 0 0 0-40.395-79.946zm-239.079-7.419v60.989a977.576 977.576 0 0 0 123.66-14.836c11.543 25.55 21.434 50.277 28.031 69.234l-67.602 9.065-82.442 7.418v394.79c0 9.066 0 55.223 32.153 71.703v10.714H239.078v-7.418c29.676-15.656 32.977-62.636 32.977-71.703v-509.35a1037.063 1037.063 0 0 0 116.238-20.606zm23.906-641.226H151.691v581.058a840.123 840.123 0 0 0 164.88-25.55c165.16-32.801 284.605-177 286.066-345.336 6-66.086-18.965-131.223-67.602-176.38a143.435 143.435 0 0 0-73.37-30.495 344.634 344.634 0 0 0-49.466-3.297zM32.977 1136.293V89.563s3.296-55.223-28.856-75V7.144H412.2a589.176 589.176 0 0 1 100.578 9.066c103.871 18.647 188.375 94.207 218.47 195.332 32.03 102.565 13.357 214.249-50.29 300.831a507.704 507.704 0 0 1-103.875 103.849L554 631.059A1177.714 1177.714 0 0 1 680.133 889.03a1475.006 1475.006 0 0 1 62.652 247.262c8.246 68.406 28.855 75.824 33.8 76.648v7.418H535.864v-7.418c49.414-25.707 78.16-78.933 72.547-134.343a736.734 736.734 0 0 0-51.113-247.258 1213.665 1213.665 0 0 0-71.723-164.841 776.957 776.957 0 0 1-143.445 42.86c-31.328 5.769-63.48 10.714-102.227 14.835-38.75 4.121-67.601 6.594-87.386 7.418v404.68c0 9.066 0 56.867 32.976 73.353v7.418H0v-7.418c30.504-15.66 32.977-64.286 32.977-73.353v.002z"/></svg>