<svg xmlns="http://www.w3.org/2000/svg" width="556.959677" height="179.546212" viewBox="0 0 40.264923 13.001794"><path fill="#d7dee1" d="M6.5 12.87A6.368 6.368 0 1 0 6.502.133 6.368 6.368 0 0 0 6.5 12.87"/><path fill="#0c234c" d="M6.5.395a6.105 6.105 0 1 0 .001 12.21 6.105 6.105 0 0 0 0-12.21"/><path fill="#d7dee1" d="M9.875 2.016A4.739 4.739 0 0 0 6.5.616a4.738 4.738 0 0 0-3.373 1.4A4.758 4.758 0 0 0 1.729 5.4l.001 2.297V7.7a4.75 4.75 0 0 0 1.396 3.287A4.733 4.733 0 0 0 6.5 12.387a4.734 4.734 0 0 0 3.375-1.401A4.758 4.758 0 0 0 11.27 7.69V5.4c0-1.28-.496-2.48-1.397-3.384m-.09 8.874a4.615 4.615 0 0 1-3.285 1.362 4.61 4.61 0 0 1-3.282-1.362 4.627 4.627 0 0 1-1.359-3.196c.018-.336.073-.664.163-.981a4.797 4.797 0 0 0 4.466 3.059 4.787 4.787 0 0 0 4.476-3.068c.094.312.154.634.18.964a4.635 4.635 0 0 1-1.36 3.222m-7.69-4.383a4.531 4.531 0 0 1 1.219-1.896 4.68 4.68 0 0 1 3.203-1.25c1.172 0 2.297.45 3.168 1.27.562.527.978 1.17 1.225 1.872a4.667 4.667 0 0 1-8.815.004m9.05.38a4.818 4.818 0 0 0-1.382-2.338 4.743 4.743 0 0 0-3.255-1.304 4.806 4.806 0 0 0-3.29 1.285 4.663 4.663 0 0 0-1.36 2.314v-1.44c0-1.245.483-2.413 1.36-3.293A4.604 4.604 0 0 1 6.5.748c1.24 0 2.408.484 3.284 1.363s1.36 2.048 1.36 3.292zm0 0"/><path fill="#d7ab3a" d="M5.425 1.614c.25-.064.605-.094.605-.094l.47.965.47-.965s.323.029.605.094l.43 1.26.097-1.117c.316.088.604.212.953.398.313.168.367.359.342.554-.001.003-.028.199-.26.115-.007 0 .405.215.315.617-.034.145-.178.218-.395.095a4.88 4.88 0 0 0-.669-.328 4.46 4.46 0 0 0-.778-.231l-.091-.268c-.297-.06-.629-.081-.629-.081l-.107.237a7.603 7.603 0 0 0-.565 0l-.108-.237c-.288.015-.628.081-.628.081l-.091.268c-.149.03-.298.066-.474.12l.026-.083c-.29.23-.54.335-.54.337-.189.091-.706.353-.831.101-.039-.06-.036-.18-.036-.18.155-.101.375-.214.53-.301 0 0-.078.318.245.146.114-.055.234-.136.288-.258.074-.208-.155-.168-.24-.142-.146.043-.684.226-.686-.137-.001-.26.348-.524.723-.678.561-.232.754-.021.739.154-.228.062-.276.08-.469.145.004-.065-.044-.163-.28-.065-.232.113-.292.204-.259.302.043.13.406-.008.495-.028.509-.109.442.234.441.243 0 0 .36-1.04.363-1.04m.14.84c.1-.02.277-.047.437-.062-.001.003-.241-.53-.241-.53zm2.87.459c.134.05.36.162.47.224 0 0 .112.084.169.011.042-.085.01-.17-.178-.271a4.858 4.858 0 0 0-.44-.205zm.047-.528s.195.08.326.142c.05.023.078.047.136.05.047-.004.063-.032.069-.056.015-.128-.132-.186-.182-.212a3.607 3.607 0 0 0-.33-.149l-.019.225m-1.485.007c.154.015.25.026.437.062l-.196-.591zm0 0"/><path fill="#d7dee1" d="M4.167 6.401c.155.072.279.121.415.102.307-.044.4-.165.682-.083.128.037.229.144.229.144s-.073-.027-.153-.032c-.3-.017-.542.213-.837.14-.264-.07-.336-.271-.336-.271"/><path fill="#d7dee1" d="M5.844 6.442c-.098.086-.314.547-.86.287-.016.055.02.234.105.358.074.119.27.17.41.155-.169.155-.057.392-.04.746a.65.65 0 0 1 .265-.278s-.173.316-.175.482c-.012.266.262.497.502.848.07-.41.054-.56.13-.8.063.143.13.843.107 1.121.412-.33.885-.339.675-1.207.126.156.244.47.279.653.194-.316.651-.518.301-1.352.19.157.26.426.337.528.055-.401.284-1.012-.215-1.472l.003-.003c.125.04.282.153.37.283-.003-.359.226-.564-.278-1.183.094-.154.16-.337.187-.523-.19.022-.416.062-.58.147a.164.164 0 0 0-.133-.092H5.776c-.101 0-.195.135-.251.395-.004-.003-.051-.04-.115-.064-.177-.068-.593-.072-.715.308-.07.178-.014.49-.014.49s.455-.34.677.055m.338-.399c-.073-.042-.126-.179-.038-.248.062-.05.243.043.108.186.125.073.198-.047.203-.09l.044-.002c-.018.088-.142.27-.317.154"/><path fill="#d7ab3a" d="M7.224 5.05c.05 0 .088.03.088.03l.572-1.238c-.618 0-.396.41-.386.434.01.023-.032.012-.032.012a.215.215 0 0 0-.362.153.215.215 0 0 0 .27.207s-.416.397-.75-.116c-.026-.04.035.046.131.046a.214.214 0 1 0-.121-.389v-.003a.213.213 0 0 0-.132-.38l-.003-.001a.213.213 0 0 0-.131.38v.004a.213.213 0 1 0-.123.387c.098 0 .158-.084.132-.045-.335.512-.75.117-.75.117a.213.213 0 1 0 .055-.419.217.217 0 0 0-.148.058s-.041.011-.03-.012c.01-.024.23-.434-.388-.434l.574 1.24s.038-.032.088-.032zm0 0"/><path fill="#d9192e" d="M7.907 6.446c.033-.133.018-.323-.273-.635a2.672 2.672 0 0 1-.297.277c.035.38.05.962-.268 1.267 0 0 .004-.247-.136-.517a1.126 1.126 0 0 1-.473.894s.053-.234.018-.649a.579.579 0 0 1-.357.372l-.078-.428s.153-.11.153-.113l.05.244c.162-.155.034-.4.187-.455.082-.026.125.036.151.087.072.147.073.274.076.435.096-.226.1-.448.066-.703-.01-.087.03-.132.081-.147.055-.011.098.02.135.063.097.12.16.279.199.42a1.32 1.32 0 0 0-.005-.731 4.677 4.677 0 0 0-.022-.087c.222-.187.424-.408.541-.686-.31.092-.716.337-.716.337l-.084-.09.32-.25c.021-.015.03-.039-.028-.04H5.959c-.112 0-.223.037-.225.226l.15.125s.181-.068.355.052l-.022.102s-.078-.053-.116-.023c-.098.252-.262.288-.396.238-.147-.06-.17-.234-.193-.328-.255-.147-.653-.17-.683.279.271-.124.55.027.624.179l.708.205c-.24.18-.566.751-.964.565.277.3.586-.074.683.083.101.167-.362.21-.286.634.067-.07.206-.218.302-.13.055.051.028.123.01.145-.2.426-.287.621.04.958.07-.52.1-.66.236-.665.201 0 .266.873.276 1.09.4-.259.46-.305.333-.942-.027-.114-.01-.18.068-.21.084-.031.155.025.19.08.094.145.19.315.245.488.1-.17.368-.286.077-.99-.048-.087-.04-.162.027-.202.144-.098.34.145.409.26-.014-.247.107-.559-.281-.953-.064-.077-.064-.132-.011-.185.084-.086.284-.01.393.054"/><g fill="#d7dee1"><path d="M6.114 6.205c.21-.041.174.148.414.193-.201.076-.292-.16-.414-.193M7.395 5.573a.582.582 0 0 1-.348.27c.066-.109.195-.255.348-.27M3.123 9.072c-.046-.04-.078-.065-.126-.122v-.198c.123.128.255.242.393.346l.001.193c-.048-.036-.095-.077-.142-.115v1.185a4.556 4.556 0 0 1-.127-.103zM3.49 9.172c.156.117.236.167.353.234v.19c-.077-.046-.14-.077-.227-.141l.003.364c.083.055.15.096.208.13l.001.16c-.072-.041-.13-.074-.208-.13l-.001.47c.079.05.136.086.244.15v.2c-.185-.116-.207-.13-.374-.247v-1.38M4.408 11.015c-.376.205-.592-.643-.408-1.292.036-.122.147-.28.39.001l.001.174c-.194-.277-.289-.194-.296.245-.015.783.166.77.313.673zM4.527 9.754c.05.025.073.034.15.062v.605c.072.025.143.047.218.062v-.594c.063.026.093.031.143.045l.001 1.382c-.05-.013-.094-.027-.143-.042v-.622a7.004 7.004 0 0 1-.22-.071v.614c-.048-.016-.097-.04-.15-.063zM5.25 9.994c.057.015.084.02.13.031.081.262.185.65.267.911h.003l.001-.861c.047.01.1.022.148.027v1.376c-.043-.005-.07-.013-.113-.018-.083-.263-.202-.623-.283-.888H5.4l.004.834c-.047-.01-.106-.02-.153-.032v-1.38M6.816 10.133c.053-.004.096-.01.155-.018v1.2c.115-.004.228-.023.333-.04l-.001.18a5.36 5.36 0 0 1-.487.059zM8.731 10.937c-.292.368-.627.195-.602-.48.017-.446.226-.85.594-.76l.001.184c-.5-.226-.467.74-.407.942.058.188.177.156.265.097l-.003-.411c-.034.015-.072.034-.106.048v-.164c.086-.036.18-.074.257-.12zM8.9 9.532c.049-.025.092-.05.139-.076l.004 1.386a4.538 4.538 0 0 1-.142.078V9.532M9.23 9.346c.131-.077.237-.164.354-.251l-.005.193a6.332 6.332 0 0 1-.22.156v.384c.082-.047.13-.081.206-.142v.161c-.077.06-.13.1-.205.145l-.003.459a3.4 3.4 0 0 0 .24-.17l-.001.181a3.345 3.345 0 0 1-.375.274zM9.701 10.167c.084.058.228-.099.184-.292-.049-.212-.211-.395-.19-.653 0-.004.037-.364.28-.448v.163c-.16.03-.166.212-.167.22-.001.068.015.114.019.127.037.099.094.207.133.303.175.413-.053.76-.259.76zM6.619 10.833c0 .395-.07.716-.326.715-.23-.001-.325-.32-.325-.715 0-.396.095-.717.325-.717.244 0 .326.321.326.717m-.326-.54c-.118 0-.179.252-.179.547 0 .293.061.532.18.532.117-.001.18-.239.18-.532 0-.295-.063-.547-.18-.546M7.991 10.666c0 .391-.069.711-.325.708-.23 0-.325-.317-.325-.708 0-.391.095-.708.325-.708.243 0 .325.317.325.708m-.325-.533c-.118 0-.18.25-.18.54 0 .29.062.528.18.526.117 0 .18-.235.18-.526 0-.29-.063-.54-.18-.54"/></g><path fill="#0c234c" d="M39.151 6.284v-.017c.404-.15.696-.609.696-1.138 0-.546-.237-1.392-1.605-1.392h-4.673V8.66l-2.117-4.923h-2.301l-1.816 4.18-1.797-4.18h-2.302l-1.88 4.329c.033-.134.052-.279.052-.439 0-.996-.633-1.423-1.685-1.605-.553-.095-2-.309-2.475-.387-.284-.048-.42-.159-.42-.349 0-.37.35-.552.982-.552.861 0 1.17.268 1.225.656h2.136c-.119-1.337-1.353-1.828-3.401-1.828-2.475 0-2.934 1.053-2.934 1.796 0 .838.45 1.423 1.614 1.597l1.882.285c.656.102.893.206.893.506 0 .482-.514.594-.988.594-.981 0-1.218-.27-1.266-.697h-2.23c.11 1.573 1.495 1.914 3.408 1.914.62 0 2.331-.011 2.992-.994l-.356.82h2.017l.34-.918h2.467l.34.918h2.767l.34-.918h2.467l.34.918h6.222c1.73 0 2.048-1.011 2.048-1.684 0-.8-.388-1.281-.982-1.415M23.585 7.295l.783-2.136h.015l.784 2.136zm5.913 0 .783-2.136h.017l.782 2.136zm5.952-2.34h1.876c.402 0 .576.22.576.475 0 .26-.174.482-.576.482H35.45zm2.024 3.21H35.45V7.018h2.024c.397 0 .666.19.666.563 0 .37-.269.584-.666.584"/></svg>